<svg class="svg-icon" style="width: 1em; height: 1em;vertical-align: middle;fill: currentColor;overflow: hidden;" viewBox="0 0 1024 1024" version="1.1" xmlns="http://www.w3.org/2000/svg"><path d="M815.281198 61.33777H733.497504c-20.445923 0-35.780366 15.334443-35.780366 35.780366s15.334443 35.780366 35.780366 35.780366h81.783694c37.484193 0 68.153078 30.668885 68.153078 68.153079v681.530782c0 37.484193-30.668885 68.153078-68.153078 68.153078H208.718802c-37.484193 0-68.153078-30.668885-68.153078-68.153078V632.1198c0-20.445923 15.334443-35.780366 35.780366-35.780366h434.475873v66.449252c0 8.519135 8.519135 13.630616 15.334443 8.519134l166.975042-102.229617c6.815308-3.407654 6.815308-13.630616 0-18.742097l-166.975042-102.229617c-6.815308-5.111481-15.334443 0-15.334443 8.519135v68.153078H176.34609c-59.633943 0-107.341098 47.707155-107.341098 107.341098v252.16639c0 76.672213 63.041597 139.71381 139.71381 139.71381h606.562396c76.672213 0 139.71381-63.041597 139.71381-139.71381v-681.530782c0-78.37604-63.041597-141.417637-139.71381-141.417638z" fill="" /><path d="M384.212978 132.898502h260.685524c20.445923 0 35.780366-15.334443 35.780367-35.780366s-15.334443-35.780366-35.780367-35.780366h-44.2995c-11.926789-35.780366-46.003328-61.33777-85.191348-61.33777-40.891847 0-73.264559 25.557404-85.191348 61.33777h-44.299501c-20.445923 0-35.780366 15.334443-35.780366 35.780366s13.630616 35.780366 34.076539 35.780366zM104.785358 482.183028c20.445923 0 35.780366-15.334443 35.780366-35.780366V201.051581c0-37.484193 30.668885-68.153078 68.153078-68.153079h86.895175c20.445923 0 35.780366-15.334443 35.780366-35.780366s-15.334443-35.780366-35.780366-35.780366h-86.895175C132.046589 61.33777 69.004992 124.379368 69.004992 201.051581v243.647254c0 20.445923 15.334443 37.484193 35.780366 37.484193zM781.204659 730.941764H232.572379c-20.445923 0-35.780366 15.334443-35.780366 35.780366s15.334443 35.780366 35.780366 35.780366h548.63228c20.445923 0 35.780366-15.334443 35.780366-35.780366s-17.03827-35.780366-35.780366-35.780366z" fill="" /><path d="M781.204659 315.207987H232.572379c-20.445923 0-35.780366 15.334443-35.780366 35.780366 0 20.445923 15.334443 35.780366 35.780366 35.780366h548.63228c20.445923 0 35.780366-15.334443 35.780366-35.780366 0-18.742097-17.03827-35.780366-35.780366-35.780366z" fill="" /></svg>